<svg id="Layer_1" data-name="Layer 1" xmlns="http://www.w3.org/2000/svg" viewBox="0 0 61.17 57.83"><defs><style>.cls-1,.cls-2{fill:none;stroke:#6d6a69;stroke-linejoin:round;}.cls-1{stroke-width:1.6px;}.cls-2{stroke-linecap:round;stroke-width:1.2px;}</style></defs><title>W17-Shop-Landing-Icons</title><path class="cls-1" d="M55.53,50.63l-6.5-29v-0.1c-1.1-2.6-6.7-4.9-9.1-5.5,0.1-.3-0.1-10.3-9.4-10.3-8.7,0-9.1,10-9,10.2-2.4.6-8.2,2.9-9.3,5.6l-6.6,29.1a4,4,0,0,0-.1,1.5A1.74,1.74,0,0,0,7,53.23l5.1,0.7c0.2,0,.4.1,0.6,0.1,1,0,1.7-.7,2-2l4.1-18.5-0.3,20.6c0,2.2,1.1,2.7,2,2.7h20c0.9,0,2-.5,2-2.7l-0.3-20.6L46.33,52c0.3,1.4,1,2,1.9,2a1.27,1.27,0,0,0,.6-0.1l5.2-.8a1.57,1.57,0,0,0,1.4-1.1A1.34,1.34,0,0,0,55.53,50.63Z"/><path class="cls-1" d="M24.93,15.43l5.5,1.6,5.9-1.6c0.1-.2-0.1-6.4-5.8-6.4C25,9,24.73,15.33,24.93,15.43Z"/><line class="cls-1" x1="30.43" y1="17.03" x2="30.43" y2="55.93"/><line class="cls-2" x1="21.43" y1="47.83" x2="27.13" y2="42.93"/><line class="cls-2" x1="39.63" y1="47.83" x2="33.93" y2="42.93"/><line class="cls-2" x1="33.93" y1="31.63" x2="33.93" y2="23.73"/></svg>